:SAMPLES-PER-SECOND 30
:FULLY-SPECIFIED
:DEGREES
91
root  42.9791 38.3854 1.22868 -29.3773 -84.4576 23.1999
RightUpLeg  13.3782 -9.51062 -2.60906
RightLeg  13.7793 1.72152 0.822986
RightFoot  -19.1558 -0.305686 -2.59328
RightToes  -3.31784e-009 0 -3.6325e-017
Spine  5.93225 2.47005 9.51296
Spine1  6.5074 5.18057 -8.96303
HEad  -0.541784 -6.32377 -1.2794
LeftShoulder1  -0.764568 5.48465 -32.4373
LeftArm  7.58776 16.89 -40.9671
LeftForeArm  24.4223 -20.0165 -4.68301
LeftHand  -0.156337 9.09145 -3.16897
RightShoulder  -1.08763 -6.45066 30.3686
RightArm  25.3307 15.4043 48.9621
RightForeArm  9.46142 15.7525 6.77851
RightHand  -0.131217 4.0035 -1.89226
LeftUpLeg  -14.5722 0.740064 -2.79199
LeftLeg  0.235611 2.60918 -0.705534
LeftFoot  1.14031 0.617521 -5.66134
LeftToes  1.28511e-009 -3.60458e-011 6.16399e-011
92
root  41.7988 38.1334 1.38958 -30.0442 -85.1815 23.7881
RightUpLeg  15.0429 -9.19699 -2.65547
RightLeg  14.656 2.3409 0.637829
RightFoot  -20.8078 -0.257843 -1.4039
RightToes  -3.31784e-009 0 -3.6325e-017
Spine  5.38735 2.51804 9.18095
Spine1  6.8072 5.25479 -9.01823
HEad  -0.521614 -6.32577 -1.12098
LeftShoulder1  -0.74977 5.47176 -31.9499
LeftArm  8.92738 16.4569 -41.2314
LeftForeArm  22.9071 -21.1816 -4.29027
LeftHand  -0.141518 9.41376 -2.4697
RightShoulder  -1.19308 -6.66923 31.1707
RightArm  24.2523 13.2417 48.5179
RightForeArm  10.6347 14.6675 7.17416
RightHand  -0.136052 3.7345 -1.97799
LeftUpLeg  -15.6608 1.34851 -3.16083
LeftLeg  5.26798 3.86697 -0.462705
LeftFoot  3.5231 0.302124 -2.72685
LeftToes  1.28511e-009 -3.60458e-011 6.16399e-011
93
root  40.5927 37.9646 1.58494 -46.3675 -86.2111 39.667
RightUpLeg  17.0445 -8.41352 -3.71639
RightLeg  15.5192 3.28125 0.548707
RightFoot  -21.7765 -0.154192 -0.0790435
RightToes  -3.31784e-009 0 -3.6325e-017
Spine  5.38452 2.84831 8.02271
Spine1  6.9025 5.62632 -9.2017
HEad  -0.0187545 -5.75554 -0.951764
LeftShoulder1  -0.81785 5.63487 -32.1666
LeftArm  9.59711 16.0135 -40.6344
LeftForeArm  21.7091 -22.1404 -4.03502
LeftHand  -0.13781 10.2019 -1.89896
RightShoulder  -1.22478 -6.69018 31.9101
RightArm  22.5977 10.5832 47.9831
RightForeArm  12.4797 13.0381 7.71284
RightHand  -0.180433 4.17918 -2.45115
LeftUpLeg  -16.1362 2.37683 -4.1798
LeftLeg  9.80478 3.74456 0.214747
LeftFoot  7.67315 -0.573136 3.23778
LeftToes  1.28511e-009 -3.60458e-011 6.16399e-011
94
root  39.3388 37.7934 1.77501 -68.2609 -86.3373 60.9303
RightUpLeg  18.4376 -6.32764 -4.69465
RightLeg  18.0992 2.8215 0.471384
RightFoot  -22.4993 0.0844773 2.38605
RightToes  -3.31784e-009 0 -3.6325e-017
Spine  5.37408 2.98395 5.64985
Spine1  7.05406 5.43585 -8.03319
HEad  0.204882 -3.58029 -1.64498
LeftShoulder1  -0.994961 6.02815 -33.2533
LeftArm  9.3925 14.8992 -39.5337
LeftForeArm  21.0307 -21.9708 -4.121
LeftHand  -0.090104 10.658 -0.661219
RightShoulder  -1.2022 -6.62828 31.9435
RightArm  20.1461 7.8576 48.12
RightForeArm  16.5068 10.6539 8.25605
RightHand  -0.0972348 2.91041 -1.59672
LeftUpLeg  -16.4587 3.35978 -5.46391
LeftLeg  15.3447 3.34919 1.15044
LeftFoot  7.07656 -1.04999 6.21046
LeftToes  1.28511e-009 -3.60458e-011 6.16399e-011
95
root  38.1302 37.6491 1.942 -77.5924 -85.645 69.7389
RightUpLeg  18.4258 -3.90741 -5.40857
RightLeg  23.0828 1.75296 0.650587
RightFoot  -22.2293 0.497492 6.84547
RightToes  -3.31784e-009 0 -3.6325e-017
Spine  5.58495 2.79551 3.48108
Spine1  6.83672 5.02819 -7.70373
HEad  -0.451906 -3.91632 -1.35921
LeftShoulder1  -0.972454 5.99408 -32.8745
LeftArm  7.4928 13.8678 -39.3459
LeftForeArm  21.6716 -20.5321 -4.54726
LeftHand  -0.0879779 10.626 -0.63652
RightShoulder  -1.23902 -6.68361 32.4196
RightArm  17.716 4.32151 48.0749
RightForeArm  20.1671 8.59614 8.32166
RightHand  -0.0588781 2.58727 -1.03189
LeftUpLeg  -16.4743 2.90536 -6.55092
LeftLeg  20.5117 4.14913 2.06097
LeftFoot  3.3295 -0.873784 6.63643
LeftToes  1.28511e-009 -3.60458e-011 6.16399e-011
96
root  37.1114 37.6585 2.14977 -90.3729 -84.9412 82.2493
RightUpLeg  16.0703 -2.76777 -7.16056
RightLeg  30.7493 3.00488 1.70607
RightFoot  -19.0988 0.71831 12.8866
RightToes  -3.31784e-009 0 -3.6325e-017
Spine  6.33194 2.93408 1.79275
Spine1  6.52605 4.96299 -8.28839
HEad  -0.373076 -5.55596 -0.927145
LeftShoulder1  -0.93296 5.89975 -32.7683
LeftArm  4.33259 12.6386 -39.2801
LeftForeArm  23.7086 -18.7678 -5.11231
LeftHand  -0.0803717 10.7553 -0.49381
RightShoulder  -1.32545 -6.88346 32.6894
RightArm  16.3621 1.02286 47.7988
RightForeArm  23.1394 6.81644 8.22235
RightHand  0.0422161 1.95034 0.478079
LeftUpLeg  -15.3284 4.09855 -7.59318
LeftLeg  22.3747 4.26616 2.26543
LeftFoot  0.845323 -0.810282 7.50887
LeftToes  1.28511e-009 -3.60458e-011 6.16399e-011
97
root  36.1386 37.7065 2.35232 -109.525 -83.8094 101.529
RightUpLeg  10.7303 -0.778384 -9.13478
RightLeg  41.2096 3.75988 3.25414
RightFoot  -11.8982 0.0395519 16.8899
RightToes  -3.31784e-009 0 -3.6325e-017
Spine  6.78649 3.23631 -0.0845448
Spine1  6.14943 4.95146 -8.59721
HEad  0.0370862 -3.67845 -0.915656
LeftShoulder1  -0.94545 5.95249 -32.4378
LeftArm  2.5339 12.1456 -39.3697
LeftForeArm  24.8024 -18.276 -5.17226
LeftHand  -0.111507 9.80232 -1.45451
RightShoulder  -1.23424 -6.71872 31.8645
RightArm  16.8219 -1.86825 48.1629
RightForeArm  24.6336 5.70784 8.52129
RightHand  0.0633803 2.09794 0.780399
LeftUpLeg  -14.1566 5.61004 -8.60322
LeftLeg  23.2653 4.79279 2.59898
LeftFoot  -1.44351 -0.62227 7.27709
LeftToes  1.28511e-009 -3.60458e-011 6.16399e-011
98
root  35.1669 37.7972 2.54766 -117.058 -82.8441 109.325
RightUpLeg  4.1391 0.580495 -10.5266
RightLeg  51.708 3.74352 4.68335
RightFoot  -0.792671 -1.25191 13.8267
RightToes  -3.31784e-009 0 -3.6325e-017
Spine  6.93472 3.01613 -2.25344
Spine1  5.76906 4.2423 -7.47963
HEad  -0.324819 -0.72004 -1.77305
LeftShoulder1  -0.944301 5.93555 -32.6581
LeftArm  3.71358 11.8392 -38.9311
LeftForeArm  23.2871 -19.1591 -4.88762
LeftHand  -0.115344 10.6934 -1.16973
RightShoulder  -1.1892 -6.63602 31.4404
RightArm  18.6249 -4.06677 47.6001
RightForeArm  26.0909 6.35748 9.01337
RightHand  0.0203052 0.969161 0.279979
LeftUpLeg  -12.8477 6.31715 -9.37036
LeftLeg  23.4819 5.29525 2.86399
LeftFoot  -3.36818 -0.468938 7.00441
LeftToes  1.28511e-009 -3.60458e-011 6.16399e-011
99
root  34.2481 37.8581 2.69242 -120.211 -82.3688 112.365
RightUpLeg  -1.31103 0.924657 -11.3115
RightLeg  58.9295 3.05776 5.00457
RightFoot  5.54836 -1.48589 10.0713
RightToes  -3.31784e-009 0 -3.6325e-017
Spine  7.27638 2.59727 -4.11741
Spine1  6.02191 3.33096 -6.48199
HEad  -1.89294 0.459265 -2.02526
LeftShoulder1  -0.885392 5.79608 -32.4574
LeftArm  4.59894 10.9749 -38.7455
LeftForeArm  22.9117 -19.6823 -4.71736
LeftHand  -0.162947 10.824 -2.11624
RightShoulder  -1.21194 -6.69402 31.4655
RightArm  21.3933 -6.12737 46.4152
RightForeArm  25.1502 8.66956 9.05938
RightHand  0.0492612 1.56209 0.691849
LeftUpLeg  -11.25 7.02949 -9.72466
LeftLeg  23.7871 5.38626 2.94302
LeftFoot  -5.41659 -0.313392 6.6901
LeftToes  1.28511e-009 -3.60458e-011 6.16399e-011
100
root  33.3745 37.9763 2.83205 -123.412 -82.3199 115.31
RightUpLeg  -5.73974 0.498189 -11.7054
RightLeg  62.4749 2.57255 4.83396
RightFoot  2.2254 -1.13875 9.68456
RightToes  -3.31784e-009 0 -3.6325e-017
Spine  8.08499 2.24221 -5.41388
Spine1  5.88206 2.51376 -5.39167
HEad  -3.16105 1.36458 -2.46509
LeftShoulder1  -0.875469 5.77915 -32.312
LeftArm  5.0864 9.53882 -38.9318
LeftForeArm  23.159 -19.7214 -4.73446
LeftHand  -0.142124 10.3178 -1.98535
RightShoulder  -1.23586 -6.75633 31.4785
RightArm  24.7488 -8.3182 44.9116
RightForeArm  21.1314 11.7283 8.4251
RightHand  0.0198539 1.85526 0.154967
LeftUpLeg  -9.28925 7.25718 -9.63599
LeftLeg  23.5246 5.64017 2.97585
LeftFoot  -6.84846 -0.215638 6.53552
LeftToes  1.28511e-009 -3.60458e-011 6.16399e-011
101
root  32.4931 38.1298 2.95372 -125.537 -82.5135 117.509
RightUpLeg  -10.1299 0.0413314 -11.5021
RightLeg  62.4622 2.46272 4.60735
RightFoot  1.59455 -0.921043 8.20819
RightToes  -3.31784e-009 0 -3.6325e-017
Spine  8.3625 1.77455 -6.30617
Spine1  5.82877 1.75139 -4.44709
HEad  -3.57247 2.14558 -2.56048
LeftShoulder1  -0.896271 5.8521 -31.9962
LeftArm  5.58055 8.91571 -39.2574
LeftForeArm  23.5568 -21.3525 -4.09088
LeftHand  -0.137349 9.11848 -2.58533
RightShoulder  -1.25155 -6.80385 31.4103
RightArm  26.9143 -10.071 43.9177
RightForeArm  17.4629 13.8767 7.6464
RightHand  0.0270321 2.06586 0.241565
LeftUpLeg  -7.40851 7.10135 -9.31492
LeftLeg  22.7685 5.79505 2.72633
LeftFoot  -8.09541 -0.12739 6.21669
LeftToes  1.28511e-009 -3.60458e-011 6.16399e-011
